<svg width="135" height="122" viewBox="0 0 135 122" fill="none" xmlns="http://www.w3.org/2000/svg">
<g clip-path="url(#clip0_1061_14154)">
<path fill-rule="evenodd" clip-rule="evenodd" d="M68.8888 0.396752C87.5359 1.19025 106.58 3.76911 118.879 17.4569C132.17 32.1366 137.725 52.5691 133.36 71.8114C128.996 91.252 115.11 106.924 97.0579 115.454C79.2042 123.785 58.5733 123.785 40.5213 115.454C22.2709 106.924 8.18633 91.4504 2.83024 72.0097C-2.72423 51.5772 -1.33561 28.3675 12.9473 12.6959C26.4367 -1.98373 48.6546 -0.595117 68.6904 0.198378L68.8888 0.396752Z" fill="#FFF1F5"/>
<path fill-rule="evenodd" clip-rule="evenodd" d="M91.7017 77.1674V43.2455C91.7017 40.6666 89.5196 38.4845 86.9407 38.4845H48.2578C45.6789 38.4845 43.4968 40.6666 43.4968 43.2455V77.1674H38.7358V78.5561C38.7358 81.1349 40.918 83.317 43.4968 83.317H91.9C94.4789 83.317 96.661 81.1349 96.661 78.5561V77.1674H91.9H91.7017Z" fill="white"/>
<path d="M95.0743 77.3658H39.728V82.3252H95.0743V77.3658Z" fill="#FF92AC"/>
<path fill-rule="evenodd" clip-rule="evenodd" d="M74.8402 64.6699C74.4435 64.6699 74.0467 64.4715 73.8484 64.2731C73.2532 63.678 73.4516 62.6861 73.8484 62.2894L77.0223 59.5122L73.8484 56.7349C73.2532 56.1398 73.2532 55.3463 73.8484 54.7512C74.4435 54.1561 75.237 54.1561 75.8321 54.7512L80.1963 58.7187C80.3947 58.917 80.5931 59.3138 80.5931 59.7105C80.5931 60.1073 80.3947 60.504 80.1963 60.7024L75.8321 64.6699C75.6337 64.8683 75.237 64.8683 74.8402 64.8683V64.6699ZM60.1606 64.6699C59.7638 64.6699 59.5654 64.6699 59.1687 64.2731L54.8045 60.3057C54.6061 60.1073 54.4077 59.7105 54.4077 59.3138C54.4077 58.917 54.6061 58.5203 54.8045 58.3219L59.1687 54.3544C59.7638 53.7593 60.7557 53.9577 61.1524 54.3544C61.7476 54.9496 61.5492 55.9414 61.1524 56.3382L57.9784 59.1154L61.1524 61.8926C61.7476 62.4878 61.7476 63.2813 61.1524 63.8764C60.9541 64.2731 60.5573 64.4715 60.1606 64.4715V64.6699ZM65.1199 68.0422C64.9215 68.0422 64.9215 68.0422 64.7232 68.0422C63.9297 67.8439 63.5329 67.0504 63.7313 66.2569L68.4923 51.7756C68.6906 50.9821 69.4841 50.5853 70.2776 50.7837C71.0711 50.9821 71.4679 51.7756 71.2695 52.5691L66.5085 67.0504C66.3102 67.6455 65.715 68.0422 65.1199 68.0422Z" fill="#193765"/>
<path fill-rule="evenodd" clip-rule="evenodd" d="M72.2613 78.5561H62.541C61.7475 78.5561 61.1523 77.961 61.1523 77.1675C61.1523 76.374 61.7475 75.7788 62.541 75.7788H72.2613C73.0548 75.7788 73.6499 76.374 73.6499 77.1675C73.6499 77.961 73.0548 78.5561 72.2613 78.5561Z" fill="#193765"/>
<path fill-rule="evenodd" clip-rule="evenodd" d="M91.7019 84.904H43.2986C39.7279 84.904 36.9507 82.1268 36.9507 78.5561V77.1675C36.9507 76.374 37.5458 75.7788 38.3393 75.7788H55.2011C55.9946 75.7788 56.5897 76.374 56.5897 77.1675C56.5897 77.961 55.9946 78.5561 55.2011 78.5561H39.7279C39.7279 80.5398 41.3149 81.9284 43.1003 81.9284H91.5035C93.4872 81.9284 94.8759 80.3414 94.8759 78.5561H79.4027C78.6092 78.5561 78.0141 77.961 78.0141 77.1675C78.0141 76.374 78.6092 75.7788 79.4027 75.7788H96.2645C97.058 75.7788 97.6531 76.374 97.6531 77.1675V78.5561C97.6531 82.1268 94.8759 84.904 91.3051 84.904H91.7019Z" fill="#193765"/>
<path fill-rule="evenodd" clip-rule="evenodd" d="M91.7019 73.3983C90.9084 73.3983 90.3133 72.8032 90.3133 72.0097V43.4439C90.3133 41.4601 88.7263 40.0715 86.9409 40.0715H48.258C46.2743 40.0715 44.8856 41.6585 44.8856 43.4439V72.0097C44.8856 72.8032 44.2905 73.3983 43.497 73.3983C42.7035 73.3983 42.1084 72.8032 42.1084 72.0097V43.4439C42.1084 39.8732 44.8856 37.0959 48.4564 37.0959H87.1393C90.71 37.0959 93.4872 39.8732 93.4872 43.4439V72.0097C93.4872 72.8032 92.8921 73.3983 92.0986 73.3983H91.7019Z" fill="#193765"/>
</g>
<defs>
<clipPath id="clip0_1061_14154">
<rect width="135" height="122" fill="white"/>
</clipPath>
</defs>
</svg>
